<?xml version="1.0" standalone="no"?>
<!DOCTYPE svg PUBLIC "-//W3C//DTD SVG 20010904//EN"
 "http://www.w3.org/TR/2001/REC-SVG-20010904/DTD/svg10.dtd">
<svg version="1.0" xmlns="http://www.w3.org/2000/svg"
 width="618.000000pt" height="618.000000pt" viewBox="0 0 618.000000 618.000000"
 preserveAspectRatio="xMidYMid meet">
<metadata>
Created by potrace 1.14, written by Peter Selinger 2001-2017
</metadata>
<g transform="translate(0.000000,618.000000) scale(0.100000,-0.100000)"
fill="#000000" stroke="none">
<path d="M2959 4962 c-14 -9 -104 -97 -201 -194 -97 -98 -178 -178 -180 -178
-2 0 -4 30 -3 68 3 148 -2 150 -305 148 -249 -1 -271 -5 -286 -48 -5 -13 -9
-192 -9 -399 l-1 -376 -208 -208 c-114 -114 -211 -218 -215 -229 -4 -12 -7
-513 -7 -1113 l1 -1093 22 -22 c15 -15 39 -24 75 -27 39 -5 2742 -6 2910 -2
15 1 39 12 55 25 l28 24 0 1098 c0 825 -3 1103 -12 1120 -10 21 -26 37 -105
105 -44 39 -163 145 -178 159 -9 8 -54 49 -100 89 -47 41 -89 80 -95 85 -5 6
-44 40 -85 75 -41 36 -79 70 -85 75 -5 6 -66 60 -135 121 -69 60 -145 128
-170 151 -163 150 -607 539 -629 550 -34 18 -51 17 -82 -4z m358 -462 c164
-145 303 -269 309 -275 33 -30 103 -92 219 -195 72 -63 135 -119 141 -125 6
-5 44 -39 84 -75 136 -119 265 -235 305 -272 l40 -38 -1330 0 -1330 0 625 625
c344 344 628 624 632 623 3 -2 141 -122 305 -268z m-922 128 c6 -3 10 -50 9
-108 l-1 -101 -129 -130 -129 -129 2 223 c0 122 2 229 2 237 1 13 21 15 119
15 64 0 122 -3 127 -7z m2060 -1290 c7 -4 9 -325 8 -935 0 -510 -2 -931 -2
-935 -1 -5 -328 -8 -729 -8 l-727 0 0 643 c1 353 -2 653 -5 666 -3 14 -17 33
-31 44 -24 17 -49 19 -436 19 -436 0 -445 -1 -463 -48 -6 -15 -10 -288 -10
-675 l0 -649 -170 0 c-129 0 -170 3 -171 13 -4 62 -1 1856 3 1863 7 10 2717
13 2733 2z m-1625 -715 c1 -55 1 -1103 0 -1135 l0 -28 -300 0 -300 0 0 600 0
600 300 0 300 0 0 -37z"/>
<path d="M3410 2827 c-58 -15 -60 -27 -61 -323 0 -419 -2 -387 26 -418 l24
-26 375 0 375 0 28 24 28 24 0 336 0 336 -26 26 -27 26 -356 2 c-196 0 -369
-2 -386 -7z m625 -372 c0 -110 -1 -206 -3 -212 -3 -10 -64 -13 -258 -13 l-254
0 0 215 0 215 257 -2 257 -3 1 -200z"/>
</g>
</svg>
